<svg xmlns="http://www.w3.org/2000/svg" width="378" height="370" viewBox="0 0 378 370" fill="none"><path d="M12.0621 136.132C24.9742 107.189 39.9207 76.9307 66.4493 58.4642C103.406 32.743 140.288 1.736 189.822 0.0969523C214.821 -0.778279 237.815 4.16582 256.314 19.2748C267.539 28.8893 280.663 36.5125 295.111 41.8098L312.137 54.3548C325.36 64.457 332.01 80.2943 347.434 88.4865C345.715 110.173 361.65 125.055 369.077 143.096C391.226 197.322 371.542 257.623 316.695 293.585L305.957 304.419C291.517 320.955 270.818 330.775 254.49 345.393C229.969 363.345 200.708 358.446 173.981 365.217C131.173 376.284 97.0218 368.55 71.089 337.788C56.1744 319.875 33.421 308.765 19.5491 289.159C15.0281 282.115 12.136 274.209 11.0352 265.886C6.86624 246.912 5.44721 227.387 0.507958 208.785C-1.819 200.159 4.53803 194.482 5.69377 187.192C7.71721 172.689 2.46827 158.256 9.60856 143.895C12.157 142.289 11.1111 140.57 10.2645 138.851C11.1504 138.119 11.7803 137.166 12.0621 136.132Z" fill="#FDFDFD"></path><path d="M115.661 307.12C112.79 319.78 109.822 339.719 110.11 340.995C112.599 341.193 115.279 336.087 116.616 332.943C122.84 323.934 134.035 287.599 141.749 261.046L125.243 264.525L115.661 307.12Z" fill="#471D58"></path><path d="M235.976 67.6603C235.882 68.4229 237.328 70.0386 238.156 70.0928C239.1 70.1531 240.119 68.8871 241.929 67.6422C240.166 66.2496 239.079 64.7847 238.253 64.9293C237.319 65.0801 236.094 66.6053 235.976 67.6603Z" fill="#471D58"></path><path d="M250.198 66.1893C247.616 52.625 226.797 58.0869 226.797 58.0869C226.797 58.0869 227.514 59.5609 226.653 59.4132C222.204 58.6777 215.31 63.8321 215.31 63.8321C216.506 63.9199 217.706 63.9199 218.901 63.8321C214.305 64.2722 205.164 73.4538 203.442 75.0243C203.442 75.0243 206.025 74.9278 207.749 74.34C203.248 75.5186 199.325 81.4055 198.464 81.8999C197.985 82.2013 199.804 82.2013 201.241 81.8999C198.464 82.7831 195.496 86.4213 194.923 87.1026C194.923 87.1026 195.399 87.202 196.548 87.4944C193.771 88.0973 191.955 91.0302 190.615 92.0159C190.615 92.0159 191.094 92.2118 191.764 92.5072C190.997 92.5072 186.02 96.8267 184.489 98.2012H187.647C159.356 110.494 146.976 137.297 141.514 155.666L225.345 137.999C232.244 118.298 231.099 105.071 231.099 105.071C231.037 103.666 232.462 101.39 233.396 100.359C234.331 99.3286 238.924 96.0128 239.785 95.1297C240.431 94.4665 245.6 93.2879 247.754 92.7001C252.849 91.6692 253.924 88.7212 254.286 87.8381C256.869 91.0061 255.076 97.4115 253.639 99.7687C271.729 78.7077 251.63 67.0725 250.198 66.1893ZM244.853 76.4771C243.343 77.7854 241.289 78.5691 240.102 80.0943C238.421 82.2586 237.31 84.8931 235.829 87.5577C232.535 86.5268 229.973 84.5796 229.097 80.658C228.231 76.7816 223.024 71.4644 222.045 67.5036C223.876 66.3672 229.979 66.5299 231.977 65.4418C233.79 64.4621 235.665 63.4403 237.628 62.9248C240.798 62.0959 244.586 63.9859 245.914 66.6626C246.881 68.6369 246.293 75.2202 244.848 76.4771H244.853Z" fill="#471D58"></path><path d="M125.02 176.076C128.2 171.441 133.015 168.258 138.443 167.201C143.914 166.056 148.344 167.114 151.733 170.376C154.913 173.424 156.502 177.782 156.5 183.449C156.498 189.115 154.901 194.121 151.71 198.466C148.317 203.108 143.887 206.003 138.419 207.15C133.13 208.257 128.771 207.253 125.343 204.136C121.993 201.115 120.318 196.892 120.318 191.467C120.318 185.639 121.88 180.515 125.002 176.094M123.327 190.761C123.327 195.369 124.711 198.977 127.479 201.586C130.339 204.266 133.98 205.144 138.402 204.217C142.945 203.265 146.637 200.815 149.48 196.868C152.146 193.143 153.477 188.884 153.473 184.094C153.469 179.303 152.147 175.585 149.506 172.941C146.668 170.149 142.974 169.229 138.425 170.18C133.865 171.075 129.835 173.784 127.215 177.715C124.619 181.483 123.323 185.834 123.327 190.767M123.991 190.629C123.991 185.86 125.234 181.657 127.72 178.02C130.227 174.271 134.073 171.688 138.425 170.831C142.778 169.92 146.304 170.804 149.004 173.48C151.55 176.006 152.829 179.591 152.838 184.235C152.848 188.879 151.561 192.973 148.977 196.516C146.276 200.308 142.75 202.658 138.399 203.566C134.189 204.446 130.718 203.607 127.985 201.049C125.323 198.547 123.99 195.074 123.988 190.629M130.247 198.662C132.238 200.814 134.945 201.531 138.369 200.814C140.065 200.489 141.677 199.81 143.106 198.819C144.536 197.829 145.752 196.548 146.679 195.057C148.529 192.157 149.452 188.777 149.45 184.917C149.45 181.098 148.535 178.111 146.706 175.955C144.719 173.658 141.967 172.877 138.449 173.613C134.727 174.393 131.895 176.37 129.954 179.545C128.236 182.439 127.376 185.955 127.374 190.095C127.374 193.775 128.332 196.634 130.247 198.674" fill="#471D58"></path><path d="M156.494 196.398L159.582 195.75L168.903 167.434L167.413 167.735V164.974L172.87 163.832L161.457 198.098L156.503 199.135L156.494 196.398ZM156.494 199.81V202.544L168.51 200.027V197.296L156.494 199.81ZM180.966 191.271L182.541 190.942L180.704 186.436L168.533 188.983L166.852 194.228L168.51 193.878V196.612L162.142 197.944L165.897 186.692L182.97 183.117L186.672 192.808L180.969 194.014L180.966 191.271ZM166.135 185.963L173.567 163.699L175.38 163.319L182.726 182.487L166.135 185.963ZM190.184 189.357L177.745 159.422L167.413 161.586V164.317L175.856 162.529C179.654 172.499 183.489 182.546 187.36 192.672L192.978 191.494V188.754L190.184 189.357ZM178.518 180.709L174.657 169.04L170.663 182.339L178.518 180.709ZM180.966 194.701V197.432L192.978 194.918V192.184L180.966 194.701Z" fill="#471D58"></path><path d="M197.013 158.107V155.373L213.28 151.979V154.692L197.013 158.107ZM197.013 190.644V187.913L201.714 186.933V160.567L197.013 161.55V158.792L204.817 157.155V189.01L197.013 190.644ZM213.286 187.931V190.665L197.013 194.059V191.328L213.286 187.931ZM208.584 169.435L218.678 157.022L215.933 157.595V154.837L225.187 152.884L205.478 177.227V157.016L213.28 155.383V158.144L208.578 159.123L208.584 169.435ZM218.305 186.195L227.414 184.29L212.207 169.878L205.478 178.204V188.887L213.28 187.247V184.516L208.578 185.495V178.358L211.964 174.261L220.911 182.906L218.299 183.452L218.305 186.195ZM232.274 151.407L226.121 152.694L212.698 169.272L228.304 184.091L234.625 182.77V180.04L229.885 181.031L216.862 168.431L228.028 155.06L232.292 154.156L232.274 151.407ZM215.945 154.141V151.41L232.274 147.991V150.722L215.945 154.141ZM234.625 183.455V186.186L218.314 189.598V186.867L234.625 183.455Z" fill="#471D58"></path><path d="M115.088 241.974C115.582 243.143 115.833 244.405 115.826 245.679C115.789 247.514 115.377 249.321 114.615 250.981C112.562 255.641 108.202 258.669 101.536 260.063L83.0235 263.943V261.23L103.904 256.877C106.079 256.423 108.043 255.148 109.796 253.052C111.624 250.87 112.536 248.582 112.534 246.188C112.533 243.795 111.515 241.911 109.481 240.537C108.315 239.707 106.951 239.218 105.535 239.123C107.128 238.28 108.477 237.022 109.446 235.476C110.44 233.988 110.98 232.23 110.998 230.427C110.998 228.25 110.242 226.555 108.732 225.342C107.222 224.128 105.415 223.732 103.311 224.154L83 228.416V225.703L101.315 221.869C106.773 220.728 110.502 221.604 112.502 224.498C113.51 225.916 114.045 227.631 114.027 229.387C114.024 230.238 113.918 231.086 113.71 231.91C113.166 234.11 112.026 236.107 110.422 237.67C111.464 237.977 112.425 238.523 113.232 239.267C114.038 240.01 114.67 240.932 115.079 241.962M83 260.567L90.4725 259.002V227.527L83 229.091V231.804L87.631 230.837V256.886L83 257.869V260.567ZM91.1395 227.388V241.776L103.322 239.228C105.29 238.808 107.051 237.693 108.3 236.079C109.671 234.388 110.357 232.553 110.357 230.571C110.357 228.59 109.671 227.033 108.3 225.899C106.929 224.78 105.27 224.424 103.322 224.832L91.1395 227.388ZM91.1395 242.46V258.867L103.904 256.193C105.902 255.773 107.718 254.592 109.352 252.651C111.037 250.626 111.878 248.516 111.876 246.321C111.879 245.592 111.754 244.868 111.509 244.184C110.949 242.665 109.871 241.487 108.277 240.651C106.764 239.809 105.01 239.544 103.325 239.904L91.1395 242.46ZM94.46 229.773L99.7992 228.654C101.126 228.343 102.471 228.115 103.825 227.973C105.179 227.973 106.114 228.323 106.643 229.055C107.109 229.709 107.358 230.5 107.354 231.31C107.349 231.809 107.279 232.304 107.145 232.784C106.952 233.476 106.616 234.118 106.16 234.665C105.703 235.212 105.138 235.652 104.501 235.955C103.729 236.371 102.358 236.784 100.387 237.194L94.46 238.439V229.773ZM94.46 244.889L100.907 243.542C103.011 243.098 104.615 242.95 105.72 243.099C107.075 243.262 108 244.024 108.512 245.375C108.721 245.921 108.828 246.503 108.826 247.09C108.793 248.194 108.467 249.269 107.882 250.197C107.298 251.125 106.477 251.871 105.509 252.356C104.629 252.828 103.305 253.249 101.536 253.619L94.46 255.093V244.889Z" fill="#471D58"></path><path d="M119.804 218.011L151.092 211.461V222.285L148.448 222.843V214.704L119.804 220.706V218.011ZM127.461 251.262V219.783L119.804 221.39V224.103L124.432 223.144V249.197L119.801 250.164V252.877L127.461 251.262ZM151.092 238.903V249.7L119.804 256.238V253.525L148.436 247.533V239.445L151.092 238.903ZM145.119 219.165V223.539L147.778 222.981V215.53L128.12 219.645V234.571L146.632 230.698V227.638L131.264 230.858V222.056L145.119 219.165ZM128.12 235.222V251.123L147.778 247.005V239.584L145.119 240.139V244.485L131.252 247.391V237.32L146.62 234.104V231.349L128.12 235.222Z" fill="#471D58"></path><path d="M189.943 235.476L194.709 234.478V237.176L187.813 238.622C185.182 234.905 183.517 232.625 182.817 231.783C180.821 229.37 178.467 227.295 175.841 225.634L176.608 225.474C179.152 224.967 181.521 223.78 183.475 222.035C185.703 220.041 186.816 217.748 186.816 215.156C186.816 211.159 185.124 208.914 181.739 208.419C180.574 208.281 179.396 208.309 178.239 208.501C177.187 208.669 176.661 208.769 176.661 208.802L155.081 213.323V210.626L176.344 206.171C179.609 205.487 182.136 205.301 183.925 205.613C184.816 205.776 185.666 206.122 186.424 206.631C187.181 207.139 187.831 207.8 188.333 208.573C189.44 210.235 190.01 212.212 189.961 214.225C189.959 217.075 188.992 219.836 187.225 222.035C185.891 223.753 184.04 225.194 181.671 226.357C183.899 227.889 186.653 230.929 189.934 235.479M155.075 245.48L162.812 243.861V212.383L155.075 214.002V216.715L159.694 215.759V241.806L155.063 242.776L155.075 245.48ZM171.154 242.788V245.501L155.075 248.868V246.155L171.154 242.788ZM176.602 224.829C178.967 224.36 181.171 223.266 182.996 221.655C185.118 219.804 186.179 217.683 186.179 215.292C186.179 212.41 185.223 210.531 183.311 209.655C181.716 208.948 179.383 208.915 176.311 209.556L163.444 212.265V227.599L176.602 224.829ZM178.601 240.555L187.052 238.791C184.666 235.401 183.077 233.24 182.285 232.308C180.167 229.739 177.639 227.558 174.81 225.857L163.444 228.241V243.735L171.154 242.107V239.409L166.521 240.377V230.43L170.811 229.525C171.588 229.333 172.383 229.222 173.182 229.194C173.792 229.217 174.392 229.365 174.945 229.631C176.032 230.107 177.83 232.071 180.337 235.524L181.513 237.218L178.592 237.821L178.601 240.555ZM166.521 214.412L176.549 212.302C178.918 211.803 180.583 211.904 181.545 212.603C182.507 213.302 182.99 214.326 182.994 215.675C182.986 216.663 182.722 217.631 182.23 218.481C181.703 219.388 180.949 220.133 180.046 220.639C178.994 221.274 177.451 221.805 175.415 222.231L166.518 224.094L166.521 214.412ZM194.709 237.857V240.57L178.601 243.916V241.203L194.709 237.857Z" fill="#471D58"></path><path d="M233.552 226.348L238.319 225.348V228.06L231.425 229.504C228.792 225.791 227.127 223.512 226.43 222.668C224.432 220.256 222.08 218.181 219.457 216.516L220.221 216.356C222.764 215.848 225.132 214.663 227.088 212.92C229.315 210.926 230.43 208.632 230.432 206.038C230.432 202.041 228.738 199.795 225.351 199.301C224.186 199.164 223.009 199.193 221.851 199.385C220.798 199.55 220.271 199.651 220.271 199.687L198.69 204.208V201.495L219.956 197.043C223.22 196.36 225.746 196.173 227.534 196.483C228.425 196.647 229.275 196.993 230.032 197.502C230.79 198.01 231.439 198.671 231.942 199.443C233.05 201.104 233.621 203.082 233.573 205.094C233.57 207.944 232.604 210.705 230.837 212.905C229.503 214.627 227.652 216.067 225.284 217.224C227.507 218.755 230.26 221.797 233.544 226.348M198.685 236.347L206.416 234.728V203.25L198.676 204.871V207.584L203.31 206.614V232.666L198.676 233.634L198.685 236.347ZM214.764 233.667V236.365L198.685 239.732V237.019L214.764 233.667ZM220.226 215.696C222.59 215.227 224.794 214.134 226.621 212.525C228.742 210.67 229.804 208.548 229.806 206.159C229.806 203.281 228.849 201.403 226.935 200.525C225.34 199.813 223.007 199.779 219.936 200.422L207.068 203.117V218.451L220.226 215.696ZM222.225 231.421L230.673 229.652C228.287 226.264 226.699 224.104 225.909 223.171C223.79 220.603 221.263 218.421 218.434 216.718L207.068 219.102V234.595L214.776 232.98V230.267L210.133 231.256V221.308L214.423 220.404C215.2 220.213 215.993 220.1 216.791 220.067C217.402 220.092 218.002 220.242 218.554 220.51C219.642 220.984 221.44 222.947 223.949 226.4L225.125 228.094L222.204 228.696L222.225 231.421ZM210.145 205.281L220.174 203.171C222.54 202.677 224.205 202.777 225.169 203.473C226.133 204.168 226.616 205.191 226.618 206.541C226.61 207.53 226.346 208.498 225.854 209.348C225.328 210.256 224.574 211.002 223.67 211.509C222.618 212.142 221.074 212.671 219.036 213.097L210.133 214.978L210.145 205.281ZM238.33 228.724V231.436L222.225 234.806V232.094L238.33 228.724Z" fill="#471D58"></path><path d="M237.069 195.898V193.185L253.137 189.83V192.543L237.069 195.898ZM252.255 212.208L241.786 198.312L237.084 199.298V196.585L243.981 195.141L255.517 210.608L255.464 210.725L255.596 210.779V224.169L247.886 225.785V223.072L252.252 222.167L252.255 212.208ZM253.137 193.218L244.742 194.975L255.908 209.941L267.256 190.261L257.915 192.217V194.93L262.029 194.065L255.952 204.651L249.94 196.591L253.137 195.931V193.218ZM263.953 223.105V225.818L247.874 229.188V226.475L263.953 223.105ZM274 188.841V191.554L269.974 192.398L259.078 210.785V220.733L263.974 219.705V222.418L256.255 224.021V210.559L268.047 190.086L274 188.841ZM257.924 191.533V188.82L274 185.465V188.178L257.924 191.533Z" fill="#471D58"></path><path d="M273.994 128.956V126.551L83.3203 166.722V169.131L273.994 128.956Z" fill="#471D58"></path><path d="M83.3203 272.16V274.562L273.994 234.879V232.477" fill="#471D58"></path></svg>